<svg xmlns="http://www.w3.org/2000/svg" viewBox="0 0 100 88.2"><defs><style>.cls-1{fill:#616e7d;}.cls-2{fill:#abc7d3;}.cls-3{fill:#82aabc;}</style></defs><g id="Laag_2" data-name="Laag 2"><g id="Object"><path class="cls-1" d="M1.82,86.38A6.21,6.21,0,0,0,6.2,88.2H93.8A6.21,6.21,0,0,0,100,82V30.71H0V82A6.21,6.21,0,0,0,1.82,86.38ZM79.87,34.87H94.18V47.6H79.87Zm0,16.25H94.18V63.86H79.87ZM61.35,34.87H75.67V47.6H61.35Zm0,16.25H75.67V63.86H61.35Zm0,16.26H75.67V80.11H61.35ZM42.84,34.87H57.16V47.6H42.84Zm0,16.25H57.16V63.86H42.84Zm0,16.26H57.16V80.11H42.84ZM24.33,34.87H38.65V47.6H24.33Zm0,16.25H38.65V63.86H24.33Zm0,16.26H38.65V80.11H24.33ZM5.82,51.12H20.14V63.86H5.82Zm0,16.26H20.14V80.11H5.82Z"/><rect class="cls-2" y="24.79" width="100" height="3.67"/><path class="cls-2" d="M10.28,7.14H6.2A6.21,6.21,0,0,0,0,13.34v7.21H100V13.34a6.21,6.21,0,0,0-6.2-6.2H83.28v8.12A2.74,2.74,0,0,1,80.53,18H74.75A2.73,2.73,0,0,1,72,15.26V7.14H28v8.12A2.74,2.74,0,0,1,25.25,18H19.47a2.73,2.73,0,0,1-2.74-2.74V7.14Z"/><rect class="cls-3" y="20.55" width="100" height="4.25"/><polygon class="cls-1" points="19.47 15.26 25.25 15.26 25.25 7.14 25.25 0 19.47 0 19.47 7.14 19.47 15.26"/><polygon class="cls-1" points="74.75 15.26 80.53 15.26 80.53 7.14 80.53 0 74.75 0 74.75 7.14 74.75 15.26"/><rect class="cls-3" x="24.33" y="34.87" width="14.32" height="12.73"/><rect class="cls-3" x="42.84" y="34.87" width="14.32" height="12.73"/><rect class="cls-3" x="61.35" y="34.87" width="14.32" height="12.73"/><rect class="cls-3" x="79.87" y="34.87" width="14.31" height="12.73"/><rect class="cls-3" x="5.82" y="51.12" width="14.32" height="12.73"/><rect class="cls-3" x="24.33" y="51.12" width="14.32" height="12.73"/><rect class="cls-3" x="42.84" y="51.12" width="14.32" height="12.73"/><rect class="cls-2" x="61.35" y="51.12" width="14.32" height="12.73"/><rect class="cls-3" x="79.87" y="51.12" width="14.31" height="12.73"/><rect class="cls-3" x="5.82" y="67.38" width="14.32" height="12.73"/><rect class="cls-2" x="24.33" y="67.38" width="14.32" height="12.73"/><rect class="cls-3" x="42.84" y="67.38" width="14.32" height="12.73"/><rect class="cls-3" x="61.35" y="67.38" width="14.32" height="12.73"/></g></g></svg>