<svg xmlns="http://www.w3.org/2000/svg" viewBox="0 0 500 500"><defs><style>.cls-1{fill:#ffc917;}.cls-2,.cls-3{fill:#003082;}.cls-3{font-size:64.28px;font-family:ArialNarrow-Bold, Arial Narrow;font-weight:700;}</style></defs><g id="Laag_2" data-name="Laag 2"><g id="Laag_1-2" data-name="Laag 1"><rect class="cls-1" width="500" height="500" rx="50"/><path class="cls-2" d="M248.48,313.84A42.44,42.44,0,0,0,278.88,326h89.68l76-76-76-76H326l60.8,60.8H304.72c-3,0-6.08-1.52-9.12-3l-44.08-45.6A42.44,42.44,0,0,0,221.12,174H131.44l-76,76,76,76H174l-60.8-60.8h82.08c3,0,6.08,1.52,9.12,3ZM225.68,247a42.44,42.44,0,0,0-30.4-12.16H113.2l30.4-30.4h77.52c3,0,6.08,1.52,9.12,3L274.32,253a42.44,42.44,0,0,0,30.4,12.16H386.8l-30.4,30.4H278.88c-3,0-6.08-1.52-9.12-3Z"/><text class="cls-3" transform="translate(77.14 427.67)">Marijn Meijles</text></g></g></svg>